<svg width="92" height="30" viewBox="0 0 92 30" fill="none" xmlns="http://www.w3.org/2000/svg">
<path d="M19.2539 10.0469L22.125 17.6758L24.9893 10.0469H27.2246V20H25.502V16.7188L25.6729 12.3301L22.7334 20H21.4961L18.5635 12.3369L18.7344 16.7188V20H17.0117V10.0469H19.2539ZM28.8037 16.2334C28.8037 15.5088 28.9473 14.8571 29.2344 14.2783C29.5215 13.695 29.9248 13.2484 30.4443 12.9385C30.9639 12.624 31.5609 12.4668 32.2354 12.4668C33.2334 12.4668 34.0423 12.7881 34.6621 13.4307C35.2865 14.0732 35.6237 14.9255 35.6738 15.9873L35.6807 16.377C35.6807 17.1061 35.5394 17.7578 35.2568 18.332C34.9788 18.9062 34.5778 19.3506 34.0537 19.665C33.5342 19.9795 32.9326 20.1367 32.249 20.1367C31.2054 20.1367 30.3691 19.7904 29.7402 19.0977C29.1159 18.4004 28.8037 17.473 28.8037 16.3154V16.2334ZM30.4648 16.377C30.4648 17.138 30.6221 17.735 30.9365 18.168C31.251 18.5964 31.6885 18.8105 32.249 18.8105C32.8096 18.8105 33.2448 18.5918 33.5547 18.1543C33.8691 17.7168 34.0264 17.0765 34.0264 16.2334C34.0264 15.486 33.8646 14.8936 33.541 14.4561C33.222 14.0186 32.7868 13.7998 32.2354 13.7998C31.693 13.7998 31.2624 14.0163 30.9434 14.4492C30.6243 14.8776 30.4648 15.5202 30.4648 16.377ZM43.0156 20H41.3545V17.5322C40.9261 17.6325 40.4749 17.6826 40.001 17.6826C38.9893 17.6826 38.2168 17.4411 37.6836 16.958C37.1504 16.4704 36.8838 15.7731 36.8838 14.8662V12.5967H38.5449V14.8662C38.5449 15.404 38.6634 15.7845 38.9004 16.0078C39.1419 16.2311 39.5088 16.3428 40.001 16.3428C40.4476 16.3428 40.8988 16.2904 41.3545 16.1855V12.6035H43.0156V20ZM49.2021 20C49.1292 19.8587 49.0654 19.6286 49.0107 19.3096C48.4821 19.861 47.835 20.1367 47.0693 20.1367C46.3265 20.1367 45.7204 19.9248 45.251 19.501C44.7816 19.0771 44.5469 18.5531 44.5469 17.9287C44.5469 17.1403 44.8385 16.5365 45.4219 16.1172C46.0098 15.6934 46.8483 15.4814 47.9375 15.4814H48.9561V14.9961C48.9561 14.6133 48.849 14.3079 48.6348 14.0801C48.4206 13.8477 48.0947 13.7314 47.6572 13.7314C47.279 13.7314 46.9691 13.8271 46.7275 14.0186C46.486 14.2054 46.3652 14.4447 46.3652 14.7363H44.7041C44.7041 14.3307 44.8385 13.9525 45.1074 13.6016C45.3763 13.2461 45.7409 12.9681 46.2012 12.7676C46.666 12.5671 47.1833 12.4668 47.7529 12.4668C48.6188 12.4668 49.3092 12.6855 49.8242 13.123C50.3392 13.556 50.6035 14.1667 50.6172 14.9551V18.291C50.6172 18.9564 50.7106 19.4873 50.8975 19.8838V20H49.2021ZM47.377 18.8037C47.7051 18.8037 48.0127 18.724 48.2998 18.5645C48.5915 18.4049 48.8102 18.1908 48.9561 17.9219V16.5273H48.0605C47.4453 16.5273 46.9827 16.6344 46.6729 16.8486C46.363 17.0628 46.208 17.3659 46.208 17.7578C46.208 18.0768 46.3128 18.332 46.5225 18.5234C46.7367 18.7103 47.0215 18.8037 47.377 18.8037ZM58.6426 12.6035V20H56.9814V13.9434H54.8896L54.7529 16.5205C54.6663 17.7601 54.4271 18.651 54.0352 19.1934C53.6478 19.7311 53.0531 20 52.251 20H51.7383L51.7314 18.6191L52.0732 18.585C52.4378 18.5348 52.7021 18.3138 52.8662 17.9219C53.0348 17.5254 53.1419 16.8053 53.1875 15.7617L53.3242 12.6035H58.6426ZM60.0986 16.2334C60.0986 15.5088 60.2422 14.8571 60.5293 14.2783C60.8164 13.695 61.2197 13.2484 61.7393 12.9385C62.2588 12.624 62.8558 12.4668 63.5303 12.4668C64.5283 12.4668 65.3372 12.7881 65.957 13.4307C66.5814 14.0732 66.9186 14.9255 66.9688 15.9873L66.9756 16.377C66.9756 17.1061 66.8343 17.7578 66.5518 18.332C66.2738 18.9062 65.8727 19.3506 65.3486 19.665C64.8291 19.9795 64.2275 20.1367 63.5439 20.1367C62.5003 20.1367 61.6641 19.7904 61.0352 19.0977C60.4108 18.4004 60.0986 17.473 60.0986 16.3154V16.2334ZM61.7598 16.377C61.7598 17.138 61.917 17.735 62.2314 18.168C62.5459 18.5964 62.9834 18.8105 63.5439 18.8105C64.1045 18.8105 64.5397 18.5918 64.8496 18.1543C65.1641 17.7168 65.3213 17.0765 65.3213 16.2334C65.3213 15.486 65.1595 14.8936 64.8359 14.4561C64.5169 14.0186 64.0817 13.7998 63.5303 13.7998C62.988 13.7998 62.5573 14.0163 62.2383 14.4492C61.9193 14.8776 61.7598 15.5202 61.7598 16.377ZM68.5068 20V12.6035H71.5078C72.5195 12.6035 73.2897 12.7812 73.8184 13.1367C74.347 13.4876 74.6113 13.9935 74.6113 14.6543C74.6113 14.9961 74.5042 15.3037 74.29 15.5771C74.0804 15.846 73.7682 16.0534 73.3535 16.1992C73.8366 16.2995 74.2194 16.5023 74.502 16.8076C74.7845 17.113 74.9258 17.473 74.9258 17.8877C74.9258 18.5758 74.6706 19.0999 74.1602 19.46C73.6543 19.82 72.9251 20 71.9727 20H68.5068ZM70.168 16.8486V18.6875H71.9863C72.8385 18.6875 73.2646 18.3822 73.2646 17.7715C73.2646 17.1562 72.8317 16.8486 71.9658 16.8486H70.168ZM70.168 15.6592H71.5352C72.4785 15.6592 72.9502 15.3812 72.9502 14.8252C72.9502 14.2419 72.5036 13.9411 71.6104 13.9229H70.168V15.6592Z" fill="#181818"/>
<rect x="1" y="1" width="90" height="28" rx="14" stroke="#181818" stroke-width="2"/>
</svg>
